<svg width="855" height="216" viewBox="0 0 855 216" fill="none" xmlns="http://www.w3.org/2000/svg">
<g clip-path="url(#clip0_1_2)">
<path d="M473 110C482.57 110 492.14 110 502 110C502 136.07 502 162.14 502 189C518.17 189 534.34 189 551 189C551.33 195.6 551.66 202.2 552 209C553.079 206.539 554.158 204.078 555.27 201.543C563.152 183.57 571.044 165.602 578.965 147.646C579.77 145.822 580.574 143.998 581.377 142.173C586.127 131.387 590.976 120.661 596 110C605.57 110 615.14 110 625 110C634.153 129.597 642.908 149.346 651.569 169.164C654.194 175.168 656.836 181.164 659.488 187.156C659.841 187.954 660.195 188.752 660.558 189.575C661.911 192.63 663.263 195.685 664.619 198.738C665.531 200.794 666.442 202.85 667.352 204.906C667.865 206.064 668.379 207.223 668.909 208.416C670 211 670 211 670 212C659.77 212 649.54 212 639 212C635 204 635 204 631 194C617.14 193.67 603.28 193.34 589 193C588.01 195.97 587.02 198.94 586 202C584.68 205.3 583.36 208.6 582 212C546.03 212 510.06 212 473 212C473 178.34 473 144.68 473 110ZM610 141C606.767 147.763 603.902 154.641 601.188 161.625C600.874 162.431 600.56 163.237 600.236 164.068C598.689 167.444 598.689 167.444 598 171C605.92 171 613.84 171 622 171C619.71 163.194 619.71 163.194 616.957 155.648C616.606 154.778 616.254 153.908 615.893 153.012C615.358 151.707 615.358 151.707 614.812 150.375C614.444 149.466 614.076 148.557 613.697 147.621C612.802 145.412 611.903 143.205 611 141C610.67 141 610.34 141 610 141Z" fill="#3466B0"/>
<path d="M145 43C145.99 43 146.98 43 148 43C149.663 45.2654 149.663 45.2654 151.484 48.4648C151.982 49.3278 151.982 49.3278 152.491 50.2081C153.209 51.4565 153.923 52.7078 154.632 53.9616C155.762 55.9588 156.905 57.9482 158.051 59.9358C159.228 61.9766 160.405 64.0177 161.577 66.0611C165.12 72.2333 168.762 78.3436 172.438 84.4375C173.029 85.421 173.62 86.4044 174.23 87.4177C176.541 91.2606 178.856 95.1017 181.171 98.9422C183.683 103.11 186.194 107.278 188.702 111.448C189.921 113.472 191.142 115.495 192.363 117.517C193.105 118.751 193.848 119.985 194.59 121.219C195.248 122.311 195.907 123.404 196.586 124.529C198 127 198 127 198 128C189.42 128 180.84 128 172 128C170.082 124.576 168.164 121.152 166.188 117.625C161.396 109.1 156.467 100.685 151.253 92.4106C148 87.2042 148 87.2042 148 85C145.322 87.4151 143.696 90.0105 141.918 93.1367C141.323 94.1773 140.727 95.2179 140.114 96.29C139.478 97.4112 138.842 98.5324 138.188 99.6875C137.181 101.451 136.172 103.213 135.164 104.975C134.473 106.183 133.782 107.391 133.092 108.6C129.086 115.614 125.003 122.583 120.921 129.553C116.562 137.008 112.285 144.501 108 152C142.32 152.33 176.64 152.66 212 153C216.95 161.91 221.9 170.82 227 180C229.947 185.047 232.895 190.086 235.881 195.108C237.822 198.39 239.727 201.693 241.625 205C242.277 206.134 242.93 207.269 243.602 208.438C245 211 245 211 245 212C206.06 212 167.12 212 127 212C127.66 210.35 128.32 208.7 129 207C129.402 205.611 129.803 204.221 130.201 202.83C132.104 197.557 134.281 193.231 139 190C149.01 187.208 160.01 188.325 170.282 188.833C174.195 189.008 178.111 189.084 182.027 189.17C189.691 189.351 197.342 189.65 205 190C202.36 184.72 199.72 179.44 197 174C154.76 173.67 112.52 173.34 69 173C69.9733 169.107 71.1981 166.678 73.2188 163.25C73.5482 162.689 73.8776 162.127 74.217 161.549C75.3062 159.696 76.4029 157.848 77.5 156C78.2704 154.694 79.0406 153.388 79.8105 152.082C85.3151 142.763 90.9183 133.505 96.5581 124.267C102.333 114.806 107.971 105.271 113.552 95.6944C119.652 85.235 125.89 74.8654 132.205 64.5352C132.862 63.4601 133.519 62.385 134.195 61.2773C134.829 60.2446 135.462 59.2119 136.114 58.1479C138.669 53.8828 141.072 49.5348 143.453 45.1702C143.963 44.454 144.474 43.7379 145 43Z" fill="#3466B0"/>
<path d="M122 0C125.799 3.65681 128.505 7.50546 131.312 11.9375C131.78 12.6407 132.247 13.3439 132.729 14.0684C133.165 14.7561 133.601 15.4438 134.051 16.1523C134.45 16.771 134.848 17.3897 135.259 18.0271C136.284 20.7558 135.853 22.229 135 25C134.104 26.8832 133.133 28.7318 132.113 30.5508C131.512 31.6292 130.91 32.7077 130.291 33.8188C129.632 34.9836 128.972 36.1481 128.312 37.3125C127.631 38.5263 126.95 39.7404 126.27 40.9546C121.345 49.7189 116.296 58.41 111.202 67.0774C107.042 74.1681 102.997 81.3164 99 88.5C94.4473 96.6819 89.8075 104.803 85.0625 112.875C80.0827 121.35 75.2491 129.894 70.5 138.5C64.5927 149.204 58.515 159.794 52.3164 170.332C48.4966 176.86 44.7527 183.433 41 190C64.1 190 87.2 190 111 190C110.163 193.347 109.453 195.21 107.75 198.074C107.307 198.824 106.863 199.573 106.406 200.346C105.942 201.118 105.478 201.891 105 202.688C104.536 203.472 104.072 204.256 103.594 205.064C100.158 210.842 100.158 210.842 99 212C95.9255 212.095 92.8734 212.126 89.7986 212.114C88.35 212.114 88.35 212.114 86.8721 212.114C83.6634 212.113 80.4548 212.105 77.2461 212.098C75.0279 212.096 72.8097 212.094 70.5916 212.093C64.7406 212.09 58.8897 212.08 53.0387 212.069C47.0733 212.058 41.108 212.054 35.1426 212.049C23.4284 212.038 11.7142 212.021 0 212C1.26386 209.619 2.52902 207.238 3.79492 204.858C4.14899 204.191 4.50306 203.523 4.86786 202.836C7.93432 197.074 11.1767 191.43 14.5 185.812C19.7058 176.95 24.8485 168.055 29.9375 159.125C38.1907 144.65 46.5172 130.218 54.8545 115.791C62.2712 102.955 69.6628 90.1057 77.01 77.23C82.4235 67.7438 87.8699 58.277 93.3379 48.822C96.6613 43.0706 99.9675 37.31 103.25 31.5352C103.606 30.9097 103.962 30.2842 104.328 29.6397C106.042 26.6282 107.753 23.6154 109.459 20.5996C113.441 13.5973 117.605 6.75089 122 0Z" fill="#3466B0"/>
<path d="M773 110C799.4 110 825.8 110 853 110C853 117.59 853 125.18 853 133C836.17 133 819.34 133 802 133C802 138.28 802 143.56 802 149C816.85 149 831.7 149 847 149C847 156.59 847 164.18 847 172C832.15 172 817.3 172 802 172C802 177.61 802 183.22 802 189C819.49 189 836.98 189 855 189C855 196.59 855 204.18 855 212C827.94 212 800.88 212 773 212C773 178.34 773 144.68 773 110Z" fill="#3466B0"/>
<path d="M298.776 109.886C299.985 109.892 301.195 109.897 302.441 109.902C303.747 109.906 305.052 109.909 306.396 109.912C307.785 109.92 309.174 109.929 310.562 109.938C311.955 109.943 313.348 109.947 314.74 109.951C318.16 109.963 321.58 109.979 325 110C331.957 124.864 338.717 139.797 345.263 154.846C345.856 156.21 346.449 157.574 347.043 158.938C347.346 159.635 347.65 160.332 347.962 161.05C350.656 167.231 353.382 173.398 356.113 179.562C356.549 180.547 356.985 181.531 357.435 182.546C359.182 186.49 360.929 190.434 362.68 194.376C363.9 197.124 365.118 199.872 366.336 202.621C366.707 203.455 367.078 204.289 367.461 205.148C370 210.887 370 210.887 370 212C359.77 212 349.54 212 339 212C335 204 335 204 331 194C317.14 193.67 303.28 193.34 289 193C288.01 195.97 287.02 198.94 286 202C284.02 206.95 284.02 206.95 282 212C271.77 212 261.54 212 251 212C255.817 200.131 260.873 188.398 266.107 176.707C268.299 171.81 270.484 166.909 272.668 162.008C273.111 161.014 273.554 160.02 274.01 158.996C279.381 146.923 284.641 134.801 289.882 122.671C290.55 121.13 291.219 119.588 291.887 118.047C292.342 116.989 292.342 116.989 292.805 115.91C295.359 110.026 295.359 110.026 298.776 109.886ZM310 141C306.767 147.763 303.902 154.641 301.188 161.625C300.874 162.431 300.56 163.237 300.236 164.068C298.689 167.444 298.689 167.444 298 171C305.92 171 313.84 171 322 171C319.71 163.194 319.71 163.194 316.957 155.648C316.606 154.778 316.254 153.908 315.893 153.012C315.358 151.707 315.358 151.707 314.812 150.375C314.444 149.466 314.076 148.557 313.697 147.621C312.802 145.412 311.903 143.205 311 141C310.67 141 310.34 141 310 141Z" fill="#3466B0"/>
<path d="M415.105 107.844C427.271 107.341 443.672 109.069 454 116C454.982 118.418 455.093 119.671 454.379 122.198C454.039 122.973 453.698 123.748 453.348 124.547C452.983 125.391 452.619 126.236 452.244 127.105C451.659 128.414 451.659 128.414 451.062 129.75C450.676 130.638 450.29 131.526 449.893 132.441C448.938 134.632 447.974 136.818 447 139C442.836 138.319 439.182 136.944 435.25 135.437C429.445 133.376 424.096 132.511 417.938 132.5C417.236 132.494 416.534 132.488 415.812 132.482C411.207 132.593 407.867 133.491 404 136C403.196 138.815 403 141.098 403 144C411.515 146.999 420.189 149.119 428.963 151.219C439.229 153.784 449.541 157.057 456 166C460.245 174.321 460.618 183.57 457.969 192.461C453.102 203.194 445.432 207.806 434.797 212.055C414.924 218.772 390.882 213.835 372.664 204.848C371.84 204.428 371.84 204.428 371 204C371.663 198.831 373.919 194.377 376.062 189.687C376.44 188.852 376.817 188.016 377.205 187.154C378.132 185.101 379.064 183.049 380 181C382.619 182.032 385.216 183.094 387.797 184.219C396.861 188.151 404.285 190.145 414.188 190.312C414.865 190.33 415.543 190.348 416.241 190.366C421.038 190.359 425.48 189.52 429 186C429.585 183.629 429.585 183.629 429 181C424.919 177.793 421.215 176.253 416.203 175.035C415.569 174.875 414.936 174.715 414.283 174.55C411.607 173.875 408.924 173.226 406.242 172.575C385.094 167.4 385.094 167.4 378.5 159.562C377.871 158.842 377.242 158.121 376.594 157.379C372.024 150.558 372.302 142.911 373 135C374.992 126.636 379.53 120.199 386.562 115.312C395.363 110.204 405.137 108.583 415.105 107.844Z" fill="#3466B0"/>
<path d="M715.105 107.844C727.271 107.341 743.672 109.069 754 116C754.982 118.418 755.093 119.671 754.379 122.198C754.039 122.973 753.698 123.748 753.348 124.547C752.983 125.391 752.619 126.236 752.244 127.105C751.659 128.414 751.659 128.414 751.062 129.75C750.676 130.638 750.29 131.526 749.893 132.441C748.938 134.632 747.974 136.818 747 139C742.836 138.319 739.182 136.944 735.25 135.437C729.445 133.376 724.096 132.511 717.938 132.5C717.236 132.494 716.534 132.488 715.812 132.482C711.204 132.593 707.875 133.503 704 136C702.759 138.941 702.759 138.941 703 142C705.345 145.262 708.227 145.869 712 146.875C713.243 147.214 714.485 147.553 715.766 147.902C718.77 148.691 721.782 149.445 724.797 150.191C748.936 156.219 748.936 156.219 756 166C760.245 174.321 760.618 183.57 757.969 192.461C753.102 203.194 745.432 207.806 734.797 212.055C715.196 218.679 691.315 214.107 673.246 205.172C672.134 204.592 672.134 204.592 671 204C671.663 198.831 673.919 194.377 676.062 189.687C676.44 188.852 676.817 188.016 677.205 187.154C678.132 185.101 679.064 183.049 680 181C682.619 182.032 685.216 183.094 687.797 184.219C696.861 188.151 704.285 190.145 714.188 190.312C714.865 190.33 715.543 190.348 716.241 190.366C721.038 190.359 725.48 189.52 729 186C729.041 183.667 729.042 181.333 729 179C721.101 176.23 713.115 174.247 704.971 172.338C693.203 169.492 682.877 166.222 675.551 155.973C671.701 148.72 671.799 139.967 673.695 132.125C676.886 123.329 682.53 116.987 691 113C699.037 109.978 706.615 108.474 715.105 107.844Z" fill="#3466B0"/>
</g>
<defs>
<clipPath id="clip0_1_2">
<rect width="855" height="216" fill="white"/>
</clipPath>
</defs>
</svg>
